<mxfile host="app.diagrams.net" modified="2023-12-27T23:03:30.700Z" agent="Mozilla/5.0 (Macintosh; Intel Mac OS X 10.15; rv:121.0) Gecko/20100101 Firefox/121.0" etag="sdTfT8onlk7Rx1Vjg1G8" version="22.1.15" type="github">
  <diagram name="Page-1" id="e16I_iggwwKTDk8mDlf-">
    <mxGraphModel dx="954" dy="532" grid="0" gridSize="10" guides="1" tooltips="1" connect="1" arrows="1" fold="1" page="1" pageScale="1" pageWidth="850" pageHeight="1100" math="0" shadow="0">
      <root>
        <mxCell id="0" />
        <mxCell id="1" parent="0" />
        <mxCell id="yOfnd-_MH76rNG8jAbrq-1" value="HFN Checkin" style="swimlane;childLayout=stackLayout;resizeParent=1;resizeParentMax=0;horizontal=0;startSize=20;horizontalStack=0;html=1;" vertex="1" parent="1">
          <mxGeometry x="60" y="50" width="480" height="240" as="geometry" />
        </mxCell>
        <mxCell id="yOfnd-_MH76rNG8jAbrq-2" value="&lt;div&gt;user&lt;/div&gt;" style="swimlane;startSize=20;horizontal=0;html=1;" vertex="1" parent="yOfnd-_MH76rNG8jAbrq-1">
          <mxGeometry x="20" width="460" height="120" as="geometry" />
        </mxCell>
        <mxCell id="yOfnd-_MH76rNG8jAbrq-5" value="user clicks on &quot;Select Event&quot;" style="rounded=1;whiteSpace=wrap;html=1;absoluteArcSize=1;arcSize=14;strokeWidth=2;" vertex="1" parent="yOfnd-_MH76rNG8jAbrq-2">
          <mxGeometry x="142" y="41" width="93" height="38" as="geometry" />
        </mxCell>
        <mxCell id="yOfnd-_MH76rNG8jAbrq-3" value="client app" style="swimlane;startSize=20;horizontal=0;html=1;" vertex="1" parent="yOfnd-_MH76rNG8jAbrq-1">
          <mxGeometry x="20" y="120" width="460" height="120" as="geometry" />
        </mxCell>
        <mxCell id="yOfnd-_MH76rNG8jAbrq-6" value="on mount, the events are fetched from the server" style="rounded=1;whiteSpace=wrap;html=1;absoluteArcSize=1;arcSize=14;strokeWidth=2;" vertex="1" parent="yOfnd-_MH76rNG8jAbrq-3">
          <mxGeometry x="38" y="38.5" width="102" height="43" as="geometry" />
        </mxCell>
      </root>
    </mxGraphModel>
  </diagram>
</mxfile>
